<svg xmlns="http://www.w3.org/2000/svg" width="1200" height="900" viewBox="0 0 1200 900"><rect width="1200" height="900" fill="#f0f0ed"/><text x="48" y="65" font-family="sans-serif" font-size="32" font-weight="bold">ENKU / UI layers</text><g id="layer-0"><path d="M100,150 l420,-55 l230,75 l-420,55 z" fill="#eeeeee" stroke="black" stroke-width="2"/><text x="830" y="175" font-family="sans-serif" font-size="24">1. Status bar</text><path d="M750,170 H810" stroke="black"/></g><g id="layer-1"><path d="M135,280 l420,-55 l230,75 l-420,55 z" fill="#dddddd" stroke="black" stroke-width="2"/><text x="830" y="305" font-family="sans-serif" font-size="24">2. Header</text><path d="M785,300 H810" stroke="black"/></g><g id="layer-2"><path d="M170,410 l420,-55 l230,75 l-420,55 z" fill="#ffffff" stroke="black" stroke-width="2"/><text x="830" y="435" font-family="sans-serif" font-size="24">3. Content</text><path d="M820,430 H810" stroke="black"/></g><g id="layer-3"><path d="M205,540 l420,-55 l230,75 l-420,55 z" fill="#cccccc" stroke="black" stroke-width="2"/><text x="830" y="565" font-family="sans-serif" font-size="24">4. Focus</text><path d="M855,560 H810" stroke="black"/></g><g id="layer-4"><path d="M240,670 l420,-55 l230,75 l-420,55 z" fill="#eeeeee" stroke="black" stroke-width="2"/><text x="830" y="695" font-family="sans-serif" font-size="24">5. Button hints</text><path d="M890,690 H810" stroke="black"/></g><text x="48" y="855" font-family="sans-serif" font-size="18">Logical UI composition / conceptual exploded view</text></svg>