<svg xmlns="http://www.w3.org/2000/svg" width="1360" height="1040" viewBox="0 0 1360 1040"><style>
text{font-family:"Noto Sans",Arial,sans-serif;fill:#111}
.h1{font-size:34px;font-weight:700}.sub{font-size:16px}.section{font-size:18px;font-weight:700}
.title{font-size:22px;font-weight:700}.body{font-size:16px}.meta{font-size:12px}.big{font-size:30px;font-weight:700}
.bg{fill:#efefec}.panel{fill:#fff}.row{fill:#fff;stroke:#111;stroke-width:1}.focus{fill:#fff;stroke:#111;stroke-width:2}
.btn{fill:#111}.btnText{fill:#fff;font-size:16px;font-weight:700}.outline{fill:#fff;stroke:#111;stroke-width:1}
</style>
<rect class="bg" width="1360" height="1040"/>
<text class="h1" x="32" y="52">ENKU / Power Off — EN v2</text><text class="sub" x="32" y="86">Confirmation only; shutdown semantics remain hardware-dependent</text>
<text class="section" x="32" y="132">Landscape · 800 × 480</text><text class="section" x="862" y="132">Portrait · 480 × 800</text>
<g transform="translate(32,150)"><rect class="panel" width="800" height="480"/><g transform="translate(656,14) scale(0.0625)" style="color:#111"><circle cx="128" cy="204" r="12"/><path d="M232,93.19a164,164,0,0,0-208,0" fill="none" stroke="currentColor" stroke-linecap="round" stroke-linejoin="round" stroke-width="16"/><path d="M200,129a116,116,0,0,0-144,0" fill="none" stroke="currentColor" stroke-linecap="round" stroke-linejoin="round" stroke-width="16"/><path d="M168,165a68,68,0,0,0-80,0" fill="none" stroke="currentColor" stroke-linecap="round" stroke-linejoin="round" stroke-width="16"/></g><text class="meta" x="680" y="27">10:42</text><text class="meta" x="726" y="27">82%</text><g transform="translate(754,14) scale(0.0625)" style="color:#111"><rect x="16" y="64" width="200" height="128" rx="16" fill="none" stroke="currentColor" stroke-linecap="round" stroke-linejoin="round" stroke-width="16"/><line x1="136" y1="96" x2="136" y2="160" fill="none" stroke="currentColor" stroke-linecap="round" stroke-linejoin="round" stroke-width="16"/><line x1="96" y1="96" x2="96" y2="160" fill="none" stroke="currentColor" stroke-linecap="round" stroke-linejoin="round" stroke-width="16"/><line x1="56" y1="96" x2="56" y2="160" fill="none" stroke="currentColor" stroke-linecap="round" stroke-linejoin="round" stroke-width="16"/><line x1="248" y1="96" x2="248" y2="160" fill="none" stroke="currentColor" stroke-linecap="round" stroke-linejoin="round" stroke-width="16"/></g><g transform="translate(18,40) scale(0.078125)" style="color:#111"><line x1="216" y1="128" x2="40" y2="128" fill="none" stroke="currentColor" stroke-linecap="round" stroke-linejoin="round" stroke-width="16"/><polyline points="112 56 40 128 112 200" fill="none" stroke="currentColor" stroke-linecap="round" stroke-linejoin="round" stroke-width="16"/></g><text class="title" x="52" y="58">Settings</text>
<rect class="row" x="170" y="100" width="460" height="266" rx="5"/>
<g transform="translate(194,126) scale(0.09375)" style="color:#111"><line x1="128" y1="48" x2="128" y2="128" fill="none" stroke="currentColor" stroke-linecap="round" stroke-linejoin="round" stroke-width="16"/><path d="M176,56c24.08,15.7,40,41.11,40,72a88,88,0,0,1-176,0c0-30.89,15.92-56.3,40-72" fill="none" stroke="currentColor" stroke-linecap="round" stroke-linejoin="round" stroke-width="16"/></g><text class="title" x="232" y="148">Power off ENKU?</text>
<text class="body" x="194" y="198">Your reading position and settings will be saved.</text>
<text class="body" x="194" y="226">Active file writes must finish first.</text>
<text class="meta" x="194" y="264">Exact wake/power behavior is finalized on real hardware.</text>
<rect class="btn" x="194" y="302" width="194" height="48" rx="4"/><text class="btnText" x="291" y="333" text-anchor="middle">Cancel</text>
<rect class="outline" x="402" y="302" width="204" height="48" rx="4"/><text class="body" x="504" y="333" text-anchor="middle">Power off</text></g>
<g transform="translate(862,150)"><rect class="panel" width="480" height="800"/><g transform="translate(328,14) scale(0.0625)" style="color:#111"><circle cx="128" cy="204" r="12"/><path d="M232,93.19a164,164,0,0,0-208,0" fill="none" stroke="currentColor" stroke-linecap="round" stroke-linejoin="round" stroke-width="16"/><path d="M200,129a116,116,0,0,0-144,0" fill="none" stroke="currentColor" stroke-linecap="round" stroke-linejoin="round" stroke-width="16"/><path d="M168,165a68,68,0,0,0-80,0" fill="none" stroke="currentColor" stroke-linecap="round" stroke-linejoin="round" stroke-width="16"/></g><text class="meta" x="352" y="27">10:42</text><text class="meta" x="398" y="27">82%</text><g transform="translate(426,14) scale(0.0625)" style="color:#111"><rect x="16" y="64" width="200" height="128" rx="16" fill="none" stroke="currentColor" stroke-linecap="round" stroke-linejoin="round" stroke-width="16"/><line x1="136" y1="96" x2="136" y2="160" fill="none" stroke="currentColor" stroke-linecap="round" stroke-linejoin="round" stroke-width="16"/><line x1="96" y1="96" x2="96" y2="160" fill="none" stroke="currentColor" stroke-linecap="round" stroke-linejoin="round" stroke-width="16"/><line x1="56" y1="96" x2="56" y2="160" fill="none" stroke="currentColor" stroke-linecap="round" stroke-linejoin="round" stroke-width="16"/><line x1="248" y1="96" x2="248" y2="160" fill="none" stroke="currentColor" stroke-linecap="round" stroke-linejoin="round" stroke-width="16"/></g><g transform="translate(18,40) scale(0.078125)" style="color:#111"><line x1="216" y1="128" x2="40" y2="128" fill="none" stroke="currentColor" stroke-linecap="round" stroke-linejoin="round" stroke-width="16"/><polyline points="112 56 40 128 112 200" fill="none" stroke="currentColor" stroke-linecap="round" stroke-linejoin="round" stroke-width="16"/></g><text class="title" x="52" y="58">Settings</text>
<rect class="row" x="24" y="220" width="432" height="306" rx="5"/>
<g transform="translate(48,250) scale(0.09375)" style="color:#111"><line x1="128" y1="48" x2="128" y2="128" fill="none" stroke="currentColor" stroke-linecap="round" stroke-linejoin="round" stroke-width="16"/><path d="M176,56c24.08,15.7,40,41.11,40,72a88,88,0,0,1-176,0c0-30.89,15.92-56.3,40-72" fill="none" stroke="currentColor" stroke-linecap="round" stroke-linejoin="round" stroke-width="16"/></g><text class="title" x="86" y="272">Power off ENKU?</text>
<text class="body" x="48" y="326">Your reading position and settings</text><text class="body" x="48" y="350">will be saved.</text>
<text class="body" x="48" y="396">Active file writes must finish first.</text>
<text class="meta" x="48" y="438">Wake behavior is hardware-dependent.</text>
<rect class="btn" x="48" y="458" width="176" height="48" rx="4"/><text class="btnText" x="136" y="489" text-anchor="middle">Cancel</text>
<rect class="outline" x="238" y="458" width="194" height="48" rx="4"/><text class="body" x="335" y="489" text-anchor="middle">Power off</text></g>
<text class="section" x="32" y="682">Behavior</text><text class="sub" x="32" y="716">• Safe default focus is Cancel.</text>
<text class="sub" x="32" y="746">• The UI does not promise a specific deep-off/wake mechanism until verified on the board.</text>
<text class="sub" x="32" y="776">• Pending writes prevent shutdown until they complete or are safely cancelled.</text>
</svg>